<svg width="100" height="100" viewBox="0 0 100 100" fill="none" xmlns="http://www.w3.org/2000/svg">
<rect width="100" height="100" fill="#0C8EEA"/>
<path d="M48.879 10H18C16.3431 10 14.9681 11.3809 15.5418 12.9352C16.4602 15.4237 18.36 17.3831 19.7677 18.4652C20.2201 18.8129 20.7835 18.968 21.354 18.968H48.879C55.8541 18.968 57.2657 26.1091 57.0996 28.6833C57.0996 34.2977 53.5115 38.477 48.2106 39.8146C47.9936 39.8693 47.7696 39.8932 47.5459 39.8932H28.7011C20.8739 39.8932 20.3487 42.0763 20.0297 43.8621C19.998 44.0393 19.9822 44.2186 19.9822 44.3986V66.0391C19.9822 67.696 21.3253 69.0391 22.9822 69.0391H26.4484C28.1052 69.0391 29.4484 67.696 29.4484 66.0391V51.6121C29.4484 49.9552 30.7915 48.6121 32.4484 48.6121H41.0986C42.0723 48.6121 42.9855 49.0847 43.5478 49.8797L56.203 67.7715C56.7653 68.5665 57.6785 69.0391 58.6523 69.0391H61.8481C64.2154 69.0391 65.65 66.4257 64.3791 64.4285L55.1226 49.8826C54.177 48.3966 54.7205 46.432 56.1875 45.4572C64.5766 39.8828 66.641 32.1434 66.5658 28.6833C64.9715 14.3345 54.1103 10.2491 48.879 10Z" fill="white"/>
<path d="M82 31.9217H78.7829C77.126 31.9217 75.7829 33.2648 75.7829 34.9217V69.8591C75.7829 70.3033 75.6867 70.7445 75.4845 71.1399C71.8519 78.244 65.744 80.6732 63.0783 80.9964C55.9513 81.1621 51.317 77.8932 49.1468 75.4027C48.4473 74.6001 47.4775 74.0213 46.4128 74.0213H43.6171C41.4887 74.0213 40.0499 76.1852 41.1768 77.9908C48.0354 88.9802 60.9249 89.8418 67.064 88.7188C79.2206 85.7295 85 75.5 85 70.5337V34.9217C85 33.2648 83.6568 31.9217 82 31.9217Z" fill="white"/>
</svg>
